Coordinates
version=1
nRows=22
nColumns=24
inDegrees=yes

Units are S.I. units (second, meters, Newtons, ...)
Angles are in degrees.

endheader
time	pelvis_tilt	pelvis_list	pelvis_rotation	pelvis_tx	pelvis_ty	pelvis_tz	hip_flexion_r	hip_adduction_r	hip_rotation_r	knee_angle_r	ankle_angle_r	subtalar_angle_r	mtp_angle_r	hip_flexion_l	hip_adduction_l	hip_rotation_l	knee_angle_l	ankle_angle_l	subtalar_angle_l	mtp_angle_l	lumbar_extension	lumbar_bending	lumbar_rotation
      1.20450000	     -1.18792934	     -2.12803529	     -7.48076536	      0.08083273	      0.95234808	      0.35565667	    -18.13736614	      3.34415887	     -2.32648776	    -10.16840234	     14.44439806	      7.65017455	     11.46392014	     28.82142754	     -3.21754528	     -8.63112352	     -1.55366057	      6.71609508	     -2.51520246	      0.36474108	     -0.57437320	      5.75162397	     11.74320041
      1.20866667	     -1.30765342	     -1.99037785	     -7.55304934	      0.08698106	      0.95146816	      0.35545706	    -18.21065845	      3.12426326	     -2.33727979	    -10.45845147	     14.26132178	      7.51008585	     11.49283372	     29.03291603	     -3.10032037	     -8.52283557	     -2.12705610	      6.53525527	     -2.82949037	      0.37009363	     -0.38735927	      5.58609376	     11.87349426
      1.21283333	     -1.41562927	     -1.84770831	     -7.62643619	      0.09317843	      0.95065463	      0.35523594	    -18.30477820	      2.89641470	     -2.32319762	    -10.72327628	     14.06169437	      7.43571048	     11.57810588	     29.21022659	     -2.96713632	     -8.33592055	     -2.69004205	      6.21026906	     -3.40329208	      0.39144859	     -0.19864249	      5.42647334	     12.00137092
      1.21700000	     -1.49098772	     -1.65810301	     -7.69417018	      0.09945003	      0.94991404	      0.35501664	    -18.41192886	      2.61290774	     -2.35609534	    -11.02533954	     13.80929371	      7.33236731	     11.62494161	     29.36956823	     -2.78936656	     -8.25394121	     -3.31814788	      5.94403561	     -3.76616237	      0.40370070	     -0.04084060	      5.18260601	     12.04957126
      1.22116667	     -1.62245699	     -1.49843687	     -7.74515752	      0.10571528	      0.94913991	      0.35473506	    -18.45564511	      2.37301450	     -2.36459663	    -11.32848045	     13.55851388	      7.29830756	     11.77288138	     29.57428553	     -2.62204651	     -7.98537749	     -3.93016186	      5.47885341	     -4.50162220	      0.44668868	      0.18302272	      5.01366956	     12.16445215
      1.22533333	     -1.72340684	     -1.30519942	     -7.79043595	      0.11204312	      0.94844382	      0.35444699	    -18.51496837	      2.09276649	     -2.39951057	    -11.66068716	     13.26423462	      7.21452639	     11.94535763	     29.75781527	     -2.41971985	     -7.80320275	     -4.58501115	      5.03016511	     -5.09770139	      0.49907808	      0.38387449	      4.78053538	     12.23442438
      1.22950000	     -1.84269762	     -1.10697271	     -7.82831329	      0.11839121	      0.94776685	      0.35412993	    -18.53525510	      1.81074306	     -2.42939902	    -12.02441220	     12.94776159	      7.11711428	     12.15374900	     29.96802315	     -2.20771949	     -7.60714992	     -5.26796851	      4.54912850	     -5.71750065	      0.56260799	      0.59834228	      4.55579524	     12.30564137
      1.23366667	     -1.96118120	     -0.90113349	     -7.85636203	      0.12477374	      0.94713405	      0.35379793	    -18.54224053	      1.52328132	     -2.46004740	    -12.41103837	     12.59730316	      6.99874954	     12.39093129	     30.18196709	     -1.98170308	     -7.42015779	     -5.96994413	      4.02790767	     -6.34069248	      0.63411099	      0.82256363	      4.31565252	     12.37106564
      1.23783333	     -2.08838680	     -0.69100687	     -7.87822520	      0.13116853	      0.94653626	      0.35343556	    -18.51473439	      1.23198552	     -2.49113110	    -12.84044396	     12.22086873	      6.86586385	     12.71632933	     30.40318542	     -1.74275775	     -7.20021928	     -6.67504827	      3.46039057	     -7.02796202	      0.73067100	      1.04983391	      4.07681832	     12.43854551
      1.24200000	     -2.17829560	     -0.44397781	     -7.88366425	      0.13762413	      0.94601480	      0.35302801	    -18.49157533	      0.88531042	     -2.63884683	    -13.32164064	     11.74698444	      6.78436075	     17.03542193	     30.59192176	     -1.45835551	     -7.06101630	     -7.39589820	      2.88303078	     -7.61249073	      2.06116470	      1.25139983	      3.78231148	     12.46256835
      1.24616667	     -2.32355285	     -0.23256893	     -7.88090276	      0.14407933	      0.94549864	      0.35264306	    -18.43029336	      0.61138310	     -2.60244377	    -13.76372675	     11.26818041	      6.53674704	     17.07519776	     30.85334302	     -1.21361631	     -6.89880634	     -8.15944782	      2.30618781	     -8.15758965	      2.05824788	      1.51926575	      3.53614765	     12.53539105
      1.25033333	     -2.46098252	      0.00003714	     -7.86771669	      0.15054315	      0.94503447	      0.35220539	    -18.33072330	      0.30759448	     -2.61811281	    -14.28977473	     10.78908000	      6.32041634	     17.16925611	     31.09815443	     -0.93389410	     -6.71048882	     -8.90553277	      1.70808820	     -8.75344300	      2.06625164	      1.76253222	      3.27667478	     12.58482118
      1.25450000	     -2.58959165	      0.23211040	     -7.84335624	      0.15702514	      0.94463145	      0.35175310	    -18.21526501	      0.00537328	     -2.64105084	    -14.85881250	     10.27255314	      6.11996863	     17.32449558	     31.33438951	     -0.64710412	     -6.52695527	     -9.65971994	      1.11108133	     -9.34331144	      2.08567996	      2.01944165	      3.00145211	     12.63112804
      1.25866667	     -2.72077625	      0.47948342	     -7.80757115	      0.16354265	      0.94427659	      0.35127843	    -18.07954389	     -0.30929837	     -2.66003641	    -15.44871795	      9.70448672	      5.90783789	     17.50534383	     31.57762123	     -0.34252297	     -6.37935744	    -10.42864531	      0.53961857	     -9.84868001	      2.10844193	      2.28039949	      2.70845132	     12.66954073
      1.26283333	     -2.76209130	      0.78486936	     -7.77418821	      0.17010941	      0.94408912	      0.35073714	    -17.99606668	     -0.71966669	     -2.78161841	    -16.09591218	      9.01487909	      5.83040577	     19.99035502	     31.68356177	      0.04688622	     -6.20350652	    -11.11089492	     -0.05262675	    -10.51111914	      2.48637721	      2.42471754	      2.34645834	     12.67133700
      1.26700000	     -2.95324806	      1.00419265	     -7.70328244	      0.17660839	      0.94374578	      0.35021866	    -17.73518926	     -0.98154957	     -2.75872648	    -16.79676893	      8.41859317	      5.50822321	     20.09621434	     32.02144106	      0.32388065	     -6.07997431	    -11.95730458	     -0.52248187	    -10.80545271	      2.49224834	      2.75681048	      2.09983276	     12.72482146
      1.27116667	     -3.07404983	      1.25877355	     -7.63765407	      0.18314276	      0.94355922	      0.34967244	    -17.52147408	     -1.29848922	     -2.75569498	    -17.52836938	      7.71928384	      5.23835932	     20.24820705	     32.25161006	      0.65211057	     -5.95092387	    -12.74233859	     -0.99078194	    -11.20746983	      2.49992037	      3.00061476	      1.80345738	     12.76037507
      1.27533333	     -3.10633671	      1.58349981	     -7.58203700	      0.18972517	      0.94353602	      0.34906250	    -17.35121882	     -1.72902603	     -2.85484435	    -18.32829732	      6.92532561	      5.12972449	     22.70000775	     32.33769789	      1.07381223	     -5.80477691	    -13.42054089	     -1.47875641	    -11.76163660	      2.66614370	      3.14230999	      1.41749070	     12.76938114
      1.27950000	     -3.26095269	      1.81206748	     -7.48149803	      0.19623292	      0.94338406	      0.34846747	    -17.03129293	     -2.00401431	     -2.83906848	    -19.18229458	      6.16462977	      4.80352172	     22.79663293	     32.61809661	      1.38016480	     -5.69674217	    -14.25370577	     -1.78853233	    -11.94902533	      2.66517135	      3.42868844	      1.15702062	     12.80110108
      1.28366667	     -3.35611076	      2.07993767	     -7.38958756	      0.20276386	      0.94336746	      0.34784217	    -16.74003164	     -2.33902507	     -2.83932856	    -20.07749575	      5.32399717	      4.55594906	     22.93882720	     32.80098289	      1.73765366	     -5.59744426	    -15.01855419	     -2.10712373	    -12.22509342	      2.66059814	      3.64008803	      0.84917237	     12.82386612
      1.28783333	     -3.40678620	      2.37992786	     -7.29144166	      0.20932777	      0.94344663	      0.34720655	    -16.46162101	     -2.71588417	     -2.86164171	    -21.02851455	      4.48059367	      4.29264203	     23.02373449	     32.92057666	      2.13020417	     -5.54710072	    -15.76194055	     -2.30091396	    -12.37985749	      2.65713333	      3.80580968	      0.48197957	     12.82427542
      1.29200000	     -3.47730968	      2.66276915	     -7.18771517	      0.21584440	      0.94354711	      0.34654948	    -16.12120056	     -3.07368601	     -2.87154094	    -22.03834843	      3.54000403	      4.07352423	     23.12898540	     33.05071462	      2.50783096	     -5.48368864	    -16.48719243	     -2.49777298	    -12.56971744	      2.65078720	      3.99525507	      0.14047955	     12.83031193
